<svg viewBox="0 0 1823 395" fill="none" xmlns="http://www.w3.org/2000/svg">
<path d="M185.608 0.700042C157.508 2.40004 130.708 9.80004 106.208 22.6C20.5082 67.5 -20.1918 167.4 9.80823 258.9C14.1082 272 24.0082 292.5 31.8082 304.5C56.2082 341.7 93.3082 370.3 135.208 384.4C168.908 395.6 209.408 397.2 244.608 388.6C282.808 379.2 318.408 357.8 344.808 328C367.408 302.6 383.508 270.6 390.708 236.8C394.208 220.2 395.208 187.7 392.708 169.7C380.008 78.7 305.008 8.50004 212.708 1.00004C200.308 4.17998e-05 196.608 4.17998e-05 185.608 0.700042ZM224.608 71.5C248.708 76.9 267.708 87.1 285.708 104.3C306.108 123.7 317.708 144.1 323.208 170.1C325.908 182.6 326.408 207.8 324.208 220C318.608 251.7 300.808 280.3 274.308 300.3C258.308 312.2 243.608 318.9 223.808 323.2C209.308 326.3 185.008 326.2 170.108 323.1C119.808 312.5 79.4082 270.8 70.6082 220.3C69.7082 215.4 69.1082 205.6 69.1082 197.5C69.1082 165.8 76.9082 142.7 95.7082 118.4C115.408 93 144.508 75.6 175.708 70.5C187.008 68.7 214.508 69.2 224.608 71.5Z" fill="#1C1B18"/>
<path d="M450.108 34.5V69H525.508C598.208 69 601.108 69.1 607.408 71C641.408 81.5 652.008 123.9 627.008 148.9C620.208 155.8 611.708 160.3 602.708 161.9C598.808 162.6 571.808 163 523.408 163H450.108V197.5V232H536.908C612.108 232 624.508 232.2 629.608 233.6C651.908 239.4 666.908 262.5 663.308 285.6C661.608 296.4 658.008 303.3 649.708 311.6C641.808 319.4 635.108 323.2 625.708 324.9C621.708 325.6 592.008 326 534.908 326H450.108V360V394.1L543.408 393.8L636.608 393.5L646.408 390.8C685.108 380.2 717.808 348.8 728.408 312C740.808 269.2 728.108 224.4 694.808 193.5C690.408 189.4 686.408 186 685.908 186C685.508 186 687.408 182.6 690.208 178.4C697.108 168.2 702.708 155.9 705.908 144.2C708.308 135.2 708.508 133 708.508 115C708.508 98.4 708.208 94.4 706.408 88C701.108 68.8 693.608 54.6 681.408 40.5C661.708 17.7 635.808 4.1 606.108 1C600.808 0.5 564.508 2.30968e-07 523.408 2.30968e-07H450.108V34.5Z" fill="#1C1B18"/>
<path d="M789.108 197V394H928.108H1067.11V360V326H962.608H858.108L857.908 163.2L857.608 0.500025L823.408 0.200025L789.108 2.46465e-05V197Z" fill="#1C1B18"/>
<path d="M998.108 35.5V71H1032.61H1067.11L1066.91 35.7L1066.61 0.500029L1032.41 0.200029L998.108 2.94596e-05V35.5Z" fill="#1C1B18"/>
<path d="M1153.11 34.5V69H1304.11H1455.11V34.5V2.94894e-05H1304.11H1153.11V34.5Z" fill="#1C1B18"/>
<path d="M1520.11 0.400025C1520.11 0.600025 1572.51 89.1 1636.41 197.1L1752.81 393.5L1787.41 393.8L1822.11 394L1821.91 197.3L1821.61 0.500025L1787.41 0.200025L1753.11 2.46465e-05L1752.91 129.3L1752.61 258.6L1676.11 129.3L1599.61 2.46465e-05H1559.91C1538.01 2.46465e-05 1520.11 0.200025 1520.11 0.400025Z" fill="#1C1B18"/>
<path d="M998.108 197V232H1225.11H1452.11V197.7V163.3L1300.41 162.7C1217.01 162.3 1114.91 162 1073.41 162H998.108V197Z" fill="#1C1B18"/>
<path d="M1520.11 358.5V394H1554.61H1589.11L1588.91 358.7L1588.61 323.5L1554.41 323.2L1520.11 323V358.5Z" fill="#1C1B18"/>
<path d="M1153.11 360V394H1304.11H1455.11V360V326H1304.11H1153.11V360Z" fill="#1C1B18"/>
</svg>